<?xml version="1.0" encoding="UTF-8"?>
<!DOCTYPE svg PUBLIC "-//W3C//DTD SVG 1.1//EN" "http://www.w3.org/Graphics/SVG/1.1/DTD/svg11.dtd">
<svg xmlns="http://www.w3.org/2000/svg" version="1.1" width="512px" height="512px" style="shape-rendering:geometricPrecision; text-rendering:geometricPrecision; image-rendering:optimizeQuality; fill-rule:evenodd; clip-rule:evenodd" xmlns:xlink="http://www.w3.org/1999/xlink">
<g><path style="opacity:0.985" fill="#000000" d="M 511.5,189.5 C 511.5,213.5 511.5,237.5 511.5,261.5C 509.685,265.479 506.685,268.312 502.5,270C 494.255,270.183 486.088,270.683 478,271.5C 459,338.167 440,404.833 421,471.5C 419.5,475.667 416.667,478.5 412.5,480C 307.833,480.667 203.167,480.667 98.5,480C 94.3333,478.5 91.5,475.667 90,471.5C 71,404.833 52,338.167 33,271.5C 24.912,270.683 16.7453,270.183 8.5,270C 4.31481,268.312 1.31481,265.479 -0.5,261.5C -0.5,237.5 -0.5,213.5 -0.5,189.5C 1.31481,185.521 4.31481,182.688 8.5,181C 27.8333,180.667 47.1667,180.333 66.5,180C 105.713,131.789 144.547,83.2887 183,34.5C 188.995,30.234 195.495,29.4006 202.5,32C 207.592,35.0167 209.926,39.5167 209.5,45.5C 209.547,48.2948 209.047,50.9615 208,53.5C 174.546,95.9555 140.713,138.122 106.5,180C 205.833,180.667 305.167,180.667 404.5,180C 370.287,138.122 336.454,95.9555 303,53.5C 298.699,36.5917 305.199,29.0917 322.5,31C 324.333,32.1667 326.167,33.3333 328,34.5C 366.453,83.2887 405.287,131.789 444.5,180C 463.833,180.333 483.167,180.667 502.5,181C 506.685,182.688 509.685,185.521 511.5,189.5 Z M 29.5,210.5 C 180.167,210.5 330.833,210.5 481.5,210.5C 481.5,220.5 481.5,230.5 481.5,240.5C 330.833,240.5 180.167,240.5 29.5,240.5C 29.5,230.5 29.5,220.5 29.5,210.5 Z M 65.5,270.5 C 192.167,270.5 318.833,270.5 445.5,270.5C 429.006,330.482 412.006,390.315 394.5,450C 301.833,450.667 209.167,450.667 116.5,450C 98.9941,390.315 81.9941,330.482 65.5,270.5 Z"/></g>
<g><path style="opacity:0.954" fill="#000000" d="M 152.5,300.5 C 162.5,298.58 169.334,302.246 173,311.5C 178.437,342.623 183.604,373.79 188.5,405C 187.056,417.569 180.056,422.569 167.5,420C 162.572,418.073 159.406,414.573 158,409.5C 152.563,378.377 147.396,347.21 142.5,316C 142.462,308.56 145.795,303.393 152.5,300.5 Z"/></g>
<g><path style="opacity:0.985" fill="#000000" d="M 249.5,300.5 C 258.822,298.251 265.655,301.251 270,309.5C 270.667,343.5 270.667,377.5 270,411.5C 264.848,420.475 257.348,422.975 247.5,419C 244.527,417.235 242.36,414.735 241,411.5C 240.333,377.5 240.333,343.5 241,309.5C 242.688,305.315 245.521,302.315 249.5,300.5 Z"/></g>
<g><path style="opacity:0.954" fill="#000000" d="M 348.5,300.5 C 363.469,298.969 370.302,305.636 369,320.5C 364.097,351.254 358.763,381.921 353,412.5C 348.464,419.844 341.964,422.344 333.5,420C 325.189,416.093 322.023,409.593 324,400.5C 328.892,370.814 333.892,341.148 339,311.5C 340.599,306.406 343.766,302.739 348.5,300.5 Z"/></g>
</svg>
