<?xml version="1.0" encoding="UTF-8"?>
<!DOCTYPE svg PUBLIC "-//W3C//DTD SVG 1.1//EN" "http://www.w3.org/Graphics/SVG/1.1/DTD/svg11.dtd">
<svg xmlns="http://www.w3.org/2000/svg" version="1.1" width="512px" height="512px" style="shape-rendering:geometricPrecision; text-rendering:geometricPrecision; image-rendering:optimizeQuality; fill-rule:evenodd; clip-rule:evenodd" xmlns:xlink="http://www.w3.org/1999/xlink">
<g><path style="opacity:0.966" fill="#000000" d="M 125.5,69.5 C 193.641,61.4751 224.141,91.4751 217,159.5C 215.173,190.313 199.339,209.146 169.5,216C 90.8039,228.304 57.9706,195.137 71,116.5C 77.6039,87.4453 95.7706,71.7786 125.5,69.5 Z M 127.5,102.5 C 139.88,102.13 152.214,102.63 164.5,104C 177.591,107.311 184.091,115.811 184,129.5C 184.667,138.833 184.667,148.167 184,157.5C 184.031,170.637 177.865,179.137 165.5,183C 149.419,186.528 133.419,186.195 117.5,182C 110.165,179.33 105.665,174.163 104,166.5C 100.698,151.169 100.698,135.836 104,120.5C 105.341,113.632 109.175,108.799 115.5,106C 119.623,104.808 123.623,103.641 127.5,102.5 Z"/></g>
<g><path style="opacity:0.963" fill="#000000" d="M 282.5,127.5 C 332.168,127.333 381.834,127.5 431.5,128C 443.119,134.36 445.452,143.193 438.5,154.5C 435.896,157.636 432.562,159.469 428.5,160C 380.833,160.667 333.167,160.667 285.5,160C 274.515,156.998 270.015,149.831 272,138.5C 273.728,132.973 277.228,129.306 282.5,127.5 Z"/></g>
<g><path style="opacity:0.966" fill="#000000" d="M 361.5,292.5 C 379.951,291.575 397.618,294.741 414.5,302C 426.928,310.012 435.095,321.179 439,335.5C 444.159,359.017 443.492,382.35 437,405.5C 430.603,422.229 418.77,433.062 401.5,438C 315.855,454.688 281.021,420.188 297,334.5C 303.998,312.502 318.831,299.335 341.5,295C 348.319,294.188 354.985,293.354 361.5,292.5 Z M 360.5,325.5 C 371.656,325.24 382.656,326.406 393.5,329C 402.072,332.616 406.905,339.116 408,348.5C 410,360.833 410,373.167 408,385.5C 406.25,399.914 398.084,407.414 383.5,408C 373.167,408.667 362.833,408.667 352.5,408C 336.202,406.702 327.702,397.869 327,381.5C 326.333,372.167 326.333,362.833 327,353.5C 327.023,341.931 332.189,333.764 342.5,329C 348.55,327.374 354.55,326.208 360.5,325.5 Z"/></g>
<g><path style="opacity:0.963" fill="#000000" d="M 82.5,350.5 C 130.168,350.333 177.834,350.5 225.5,351C 236.424,353.996 240.924,361.162 239,372.5C 237.141,377.693 233.641,381.193 228.5,383C 178.833,383.667 129.167,383.667 79.5,383C 67.5838,376.21 65.4172,367.043 73,355.5C 75.9074,353.132 79.0741,351.465 82.5,350.5 Z"/></g>
</svg>
