<?xml version="1.0" encoding="UTF-8"?>
<!DOCTYPE svg PUBLIC "-//W3C//DTD SVG 1.1//EN" "http://www.w3.org/Graphics/SVG/1.1/DTD/svg11.dtd">
<svg xmlns="http://www.w3.org/2000/svg" version="1.1" width="512px" height="512px" style="shape-rendering:geometricPrecision; text-rendering:geometricPrecision; image-rendering:optimizeQuality; fill-rule:evenodd; clip-rule:evenodd" xmlns:xlink="http://www.w3.org/1999/xlink">
<g><path style="opacity:0.997" fill="#000000" d="M 81.5,31.5 C 197.5,31.3333 313.5,31.5 429.5,32C 434,33.8333 437.167,37 439,41.5C 439.667,50.8333 439.667,60.1667 439,69.5C 437.167,74 434,77.1667 429.5,79C 422.174,79.4997 414.841,79.6663 407.5,79.5C 407.5,207.5 407.5,335.5 407.5,463.5C 417.605,463.051 427.605,463.551 437.5,465C 439.429,468.256 439.929,471.756 439,475.5C 438.5,477.333 437.333,478.5 435.5,479C 315.5,479.667 195.5,479.667 75.5,479C 73.6667,478.5 72.5,477.333 72,475.5C 71.0715,471.756 71.5715,468.256 73.5,465C 83.3949,463.551 93.3949,463.051 103.5,463.5C 103.5,335.5 103.5,207.5 103.5,79.5C 96.1591,79.6663 88.8258,79.4997 81.5,79C 77,77.1667 73.8333,74 72,69.5C 71.3333,60.1667 71.3333,50.8333 72,41.5C 74.0223,36.98 77.189,33.6467 81.5,31.5 Z M 87.5,47.5 C 199.5,47.5 311.5,47.5 423.5,47.5C 423.5,52.8333 423.5,58.1667 423.5,63.5C 311.5,63.5 199.5,63.5 87.5,63.5C 87.5,58.1667 87.5,52.8333 87.5,47.5 Z M 119.5,79.5 C 210.167,79.5 300.833,79.5 391.5,79.5C 391.5,207.5 391.5,335.5 391.5,463.5C 370.167,463.5 348.833,463.5 327.5,463.5C 327.984,420.106 327.484,376.773 326,333.5C 322.686,326.851 317.519,322.351 310.5,320C 273.833,319.333 237.167,319.333 200.5,320C 192.333,322.833 186.833,328.333 184,336.5C 183.5,378.832 183.333,421.165 183.5,463.5C 162.167,463.5 140.833,463.5 119.5,463.5C 119.5,335.5 119.5,207.5 119.5,79.5 Z M 167.5,119.5 C 172.833,119.5 178.167,119.5 183.5,119.5C 183.5,124.833 183.5,130.167 183.5,135.5C 178.167,135.5 172.833,135.5 167.5,135.5C 167.5,130.167 167.5,124.833 167.5,119.5 Z M 247.5,119.5 C 252.833,119.5 258.167,119.5 263.5,119.5C 263.5,124.833 263.5,130.167 263.5,135.5C 258.167,135.5 252.833,135.5 247.5,135.5C 247.5,130.167 247.5,124.833 247.5,119.5 Z M 327.5,119.5 C 332.833,119.5 338.167,119.5 343.5,119.5C 343.5,124.833 343.5,130.167 343.5,135.5C 338.167,135.5 332.833,135.5 327.5,135.5C 327.5,130.167 327.5,124.833 327.5,119.5 Z M 167.5,191.5 C 172.833,191.5 178.167,191.5 183.5,191.5C 183.5,196.833 183.5,202.167 183.5,207.5C 178.167,207.5 172.833,207.5 167.5,207.5C 167.5,202.167 167.5,196.833 167.5,191.5 Z M 247.5,191.5 C 252.833,191.5 258.167,191.5 263.5,191.5C 263.5,196.833 263.5,202.167 263.5,207.5C 258.167,207.5 252.833,207.5 247.5,207.5C 247.5,202.167 247.5,196.833 247.5,191.5 Z M 327.5,191.5 C 332.833,191.5 338.167,191.5 343.5,191.5C 343.5,196.833 343.5,202.167 343.5,207.5C 338.167,207.5 332.833,207.5 327.5,207.5C 327.5,202.167 327.5,196.833 327.5,191.5 Z M 167.5,263.5 C 172.833,263.5 178.167,263.5 183.5,263.5C 183.5,268.833 183.5,274.167 183.5,279.5C 178.167,279.5 172.833,279.5 167.5,279.5C 167.5,274.167 167.5,268.833 167.5,263.5 Z M 247.5,263.5 C 252.833,263.5 258.167,263.5 263.5,263.5C 263.5,268.833 263.5,274.167 263.5,279.5C 258.167,279.5 252.833,279.5 247.5,279.5C 247.5,274.167 247.5,268.833 247.5,263.5 Z M 327.5,263.5 C 332.833,263.5 338.167,263.5 343.5,263.5C 343.5,268.833 343.5,274.167 343.5,279.5C 338.167,279.5 332.833,279.5 327.5,279.5C 327.5,274.167 327.5,268.833 327.5,263.5 Z M 207.5,335.5 C 220.833,335.5 234.167,335.5 247.5,335.5C 247.5,378.167 247.5,420.833 247.5,463.5C 231.5,463.5 215.5,463.5 199.5,463.5C 199.333,423.499 199.5,383.499 200,343.5C 200.68,338.989 203.18,336.323 207.5,335.5 Z M 263.5,335.5 C 276.837,335.333 290.171,335.5 303.5,336C 306.494,336.406 308.661,337.906 310,340.5C 311.483,381.439 311.983,422.439 311.5,463.5C 295.5,463.5 279.5,463.5 263.5,463.5C 263.5,420.833 263.5,378.167 263.5,335.5 Z"/></g>
<g><path style="opacity:0.988" fill="#000000" d="M 155.5,103.5 C 168.837,103.333 182.171,103.5 195.5,104C 196.416,104.374 197.25,104.874 198,105.5C 199.133,112.733 199.633,120.066 199.5,127.5C 205.167,149.167 197.167,157.167 175.5,151.5C 168.833,151.333 162.167,151.167 155.5,151C 154.584,150.626 153.75,150.126 153,149.5C 151.369,135.594 151.036,121.594 152,107.5C 152.69,105.65 153.856,104.316 155.5,103.5 Z M 167.5,119.5 C 167.5,124.833 167.5,130.167 167.5,135.5C 172.833,135.5 178.167,135.5 183.5,135.5C 183.5,130.167 183.5,124.833 183.5,119.5C 178.167,119.5 172.833,119.5 167.5,119.5 Z"/></g>
<g><path style="opacity:0.988" fill="#000000" d="M 235.5,103.5 C 248.837,103.333 262.171,103.5 275.5,104C 276.416,104.374 277.25,104.874 278,105.5C 279.133,112.733 279.633,120.066 279.5,127.5C 285.167,149.167 277.167,157.167 255.5,151.5C 248.833,151.333 242.167,151.167 235.5,151C 234.584,150.626 233.75,150.126 233,149.5C 231.369,135.594 231.036,121.594 232,107.5C 232.69,105.65 233.856,104.316 235.5,103.5 Z M 247.5,119.5 C 247.5,124.833 247.5,130.167 247.5,135.5C 252.833,135.5 258.167,135.5 263.5,135.5C 263.5,130.167 263.5,124.833 263.5,119.5C 258.167,119.5 252.833,119.5 247.5,119.5 Z"/></g>
<g><path style="opacity:0.988" fill="#000000" d="M 315.5,103.5 C 328.837,103.333 342.171,103.5 355.5,104C 356.416,104.374 357.25,104.874 358,105.5C 359.133,112.733 359.633,120.066 359.5,127.5C 365.167,149.167 357.167,157.167 335.5,151.5C 328.833,151.333 322.167,151.167 315.5,151C 314.584,150.626 313.75,150.126 313,149.5C 311.369,135.594 311.036,121.594 312,107.5C 312.69,105.65 313.856,104.316 315.5,103.5 Z M 327.5,119.5 C 327.5,124.833 327.5,130.167 327.5,135.5C 332.833,135.5 338.167,135.5 343.5,135.5C 343.5,130.167 343.5,124.833 343.5,119.5C 338.167,119.5 332.833,119.5 327.5,119.5 Z"/></g>
<g><path style="opacity:0.988" fill="#000000" d="M 155.5,175.5 C 168.837,175.333 182.171,175.5 195.5,176C 196.416,176.374 197.25,176.874 198,177.5C 199.133,184.733 199.633,192.066 199.5,199.5C 205.167,221.167 197.167,229.167 175.5,223.5C 168.833,223.333 162.167,223.167 155.5,223C 154.584,222.626 153.75,222.126 153,221.5C 151.369,207.594 151.036,193.594 152,179.5C 152.69,177.65 153.856,176.316 155.5,175.5 Z M 167.5,191.5 C 167.5,196.833 167.5,202.167 167.5,207.5C 172.833,207.5 178.167,207.5 183.5,207.5C 183.5,202.167 183.5,196.833 183.5,191.5C 178.167,191.5 172.833,191.5 167.5,191.5 Z"/></g>
<g><path style="opacity:0.988" fill="#000000" d="M 235.5,175.5 C 248.837,175.333 262.171,175.5 275.5,176C 276.416,176.374 277.25,176.874 278,177.5C 279.133,184.733 279.633,192.066 279.5,199.5C 285.167,221.167 277.167,229.167 255.5,223.5C 248.833,223.333 242.167,223.167 235.5,223C 234.584,222.626 233.75,222.126 233,221.5C 231.369,207.594 231.036,193.594 232,179.5C 232.69,177.65 233.856,176.316 235.5,175.5 Z M 247.5,191.5 C 247.5,196.833 247.5,202.167 247.5,207.5C 252.833,207.5 258.167,207.5 263.5,207.5C 263.5,202.167 263.5,196.833 263.5,191.5C 258.167,191.5 252.833,191.5 247.5,191.5 Z"/></g>
<g><path style="opacity:0.988" fill="#000000" d="M 315.5,175.5 C 328.837,175.333 342.171,175.5 355.5,176C 356.416,176.374 357.25,176.874 358,177.5C 359.133,184.733 359.633,192.066 359.5,199.5C 365.167,221.167 357.167,229.167 335.5,223.5C 328.833,223.333 322.167,223.167 315.5,223C 314.584,222.626 313.75,222.126 313,221.5C 311.369,207.594 311.036,193.594 312,179.5C 312.69,177.65 313.856,176.316 315.5,175.5 Z M 327.5,191.5 C 327.5,196.833 327.5,202.167 327.5,207.5C 332.833,207.5 338.167,207.5 343.5,207.5C 343.5,202.167 343.5,196.833 343.5,191.5C 338.167,191.5 332.833,191.5 327.5,191.5 Z"/></g>
<g><path style="opacity:0.988" fill="#000000" d="M 155.5,247.5 C 168.837,247.333 182.171,247.5 195.5,248C 196.416,248.374 197.25,248.874 198,249.5C 199.133,256.733 199.633,264.066 199.5,271.5C 205.167,293.167 197.167,301.167 175.5,295.5C 168.833,295.333 162.167,295.167 155.5,295C 154.584,294.626 153.75,294.126 153,293.5C 151.369,279.594 151.036,265.594 152,251.5C 152.69,249.65 153.856,248.316 155.5,247.5 Z M 167.5,263.5 C 167.5,268.833 167.5,274.167 167.5,279.5C 172.833,279.5 178.167,279.5 183.5,279.5C 183.5,274.167 183.5,268.833 183.5,263.5C 178.167,263.5 172.833,263.5 167.5,263.5 Z"/></g>
<g><path style="opacity:0.988" fill="#000000" d="M 235.5,247.5 C 248.837,247.333 262.171,247.5 275.5,248C 276.416,248.374 277.25,248.874 278,249.5C 279.133,256.733 279.633,264.066 279.5,271.5C 285.167,293.167 277.167,301.167 255.5,295.5C 248.833,295.333 242.167,295.167 235.5,295C 234.584,294.626 233.75,294.126 233,293.5C 231.369,279.594 231.036,265.594 232,251.5C 232.69,249.65 233.856,248.316 235.5,247.5 Z M 247.5,263.5 C 247.5,268.833 247.5,274.167 247.5,279.5C 252.833,279.5 258.167,279.5 263.5,279.5C 263.5,274.167 263.5,268.833 263.5,263.5C 258.167,263.5 252.833,263.5 247.5,263.5 Z"/></g>
<g><path style="opacity:0.988" fill="#000000" d="M 315.5,247.5 C 328.837,247.333 342.171,247.5 355.5,248C 356.416,248.374 357.25,248.874 358,249.5C 359.133,256.733 359.633,264.066 359.5,271.5C 365.167,293.167 357.167,301.167 335.5,295.5C 328.833,295.333 322.167,295.167 315.5,295C 314.584,294.626 313.75,294.126 313,293.5C 311.369,279.594 311.036,265.594 312,251.5C 312.69,249.65 313.856,248.316 315.5,247.5 Z M 327.5,263.5 C 327.5,268.833 327.5,274.167 327.5,279.5C 332.833,279.5 338.167,279.5 343.5,279.5C 343.5,274.167 343.5,268.833 343.5,263.5C 338.167,263.5 332.833,263.5 327.5,263.5 Z"/></g>
</svg>
