<?xml version="1.0" encoding="UTF-8"?>
<!DOCTYPE svg PUBLIC "-//W3C//DTD SVG 1.1//EN" "http://www.w3.org/Graphics/SVG/1.1/DTD/svg11.dtd">
<svg xmlns="http://www.w3.org/2000/svg" version="1.1" width="512px" height="512px" style="shape-rendering:geometricPrecision; text-rendering:geometricPrecision; image-rendering:optimizeQuality; fill-rule:evenodd; clip-rule:evenodd" xmlns:xlink="http://www.w3.org/1999/xlink">
<g><path style="opacity:0.948" fill="#000000" d="M -0.5,94.5 C -0.5,88.1667 -0.5,81.8333 -0.5,75.5C 9.68648,47.4046 29.3531,37.2379 58.5,45C 79.3296,55.4917 87.8296,72.3251 84,95.5C 75.5394,119.92 58.3727,130.42 32.5,127C 15.651,121.984 4.651,111.15 -0.5,94.5 Z M 36.5,64.5 C 56.8145,63.9774 64.9811,73.644 61,93.5C 53.5287,105.579 43.362,108.412 30.5,102C 19.7444,92.2047 18.7444,81.538 27.5,70C 30.2632,67.6258 33.2632,65.7925 36.5,64.5 Z"/></g>
<g><path style="opacity:0.967" fill="#000000" d="M 511.5,48.5 C 511.5,51.5 511.5,54.5 511.5,57.5C 510.023,59.807 508.023,61.6403 505.5,63C 381.5,63.6667 257.5,63.6667 133.5,63C 129.198,61.0649 127.198,57.7316 127.5,53C 127.58,46.9217 130.58,43.2551 136.5,42C 258.5,41.3333 380.5,41.3333 502.5,42C 506.494,42.8328 509.494,44.9994 511.5,48.5 Z"/></g>
<g><path style="opacity:0.965" fill="#000000" d="M 136.5,105.5 C 208.834,105.333 281.167,105.5 353.5,106C 362.555,109.63 364.722,115.796 360,124.5C 358.745,125.211 357.579,126.044 356.5,127C 282.167,127.667 207.833,127.667 133.5,127C 127.891,123.723 126.058,118.89 128,112.5C 129.866,108.784 132.699,106.45 136.5,105.5 Z"/></g>
<g><path style="opacity:0.948" fill="#000000" d="M -0.5,264.5 C -0.5,258.5 -0.5,252.5 -0.5,246.5C 7.1479,222.159 23.8146,210.992 49.5,213C 71.7809,218.448 83.7809,232.615 85.5,255.5C 81.0614,287.721 62.7281,301.555 30.5,297C 14.1382,291.807 3.80482,280.974 -0.5,264.5 Z M 39.5,234.5 C 56.2725,235.772 63.7725,244.772 62,261.5C 54.8247,276.335 43.9914,279.835 29.5,272C 18.8333,261 18.8333,250 29.5,239C 32.8153,237.17 36.1486,235.67 39.5,234.5 Z"/></g>
<g><path style="opacity:0.966" fill="#000000" d="M 511.5,218.5 C 511.5,221.833 511.5,225.167 511.5,228.5C 509.954,231.2 507.621,233.033 504.5,234C 381.167,234.667 257.833,234.667 134.5,234C 127.868,230.903 125.701,225.736 128,218.5C 129.251,215.619 131.417,213.786 134.5,213C 257.833,212.333 381.167,212.333 504.5,213C 507.621,213.967 509.954,215.8 511.5,218.5 Z"/></g>
<g><path style="opacity:0.963" fill="#000000" d="M 134.5,276.5 C 208.167,276.333 281.834,276.5 355.5,277C 362.414,280.77 364.247,286.27 361,293.5C 359.457,295.378 357.624,296.878 355.5,298C 281.833,298.667 208.167,298.667 134.5,298C 127.868,294.903 125.701,289.736 128,282.5C 129.494,279.686 131.66,277.686 134.5,276.5 Z"/></g>
<g><path style="opacity:0.948" fill="#000000" d="M -0.5,435.5 C -0.5,429.167 -0.5,422.833 -0.5,416.5C 11.7512,385.681 33.4179,376.514 64.5,389C 83.3278,402.484 89.1611,420.318 82,442.5C 71.5083,463.33 54.6749,471.83 31.5,468C 14.6685,463.122 4.00185,452.288 -0.5,435.5 Z M 37.5,405.5 C 55.422,405.025 63.5886,413.692 62,431.5C 57.6467,443.431 49.1467,448.264 36.5,446C 21.9237,439.568 18.0904,429.068 25,414.5C 28.2991,410.118 32.4657,407.118 37.5,405.5 Z"/></g>
<g><path style="opacity:0.967" fill="#000000" d="M 511.5,389.5 C 511.5,392.5 511.5,395.5 511.5,398.5C 509.494,402.001 506.494,404.167 502.5,405C 380.5,405.667 258.5,405.667 136.5,405C 127.63,402.081 125.13,396.247 129,387.5C 130.214,385.951 131.714,384.785 133.5,384C 257.5,383.333 381.5,383.333 505.5,384C 508.023,385.36 510.023,387.193 511.5,389.5 Z"/></g>
<g><path style="opacity:0.965" fill="#000000" d="M 133.5,447.5 C 207.834,447.333 282.167,447.5 356.5,448C 362.935,452.687 364.102,458.521 360,465.5C 358.2,467.317 356.034,468.484 353.5,469C 281.167,469.667 208.833,469.667 136.5,469C 128.626,466.76 125.792,461.593 128,453.5C 129.36,450.977 131.193,448.977 133.5,447.5 Z"/></g>
</svg>
