<?xml version="1.0" encoding="UTF-8"?>
<svg version="1.1" xmlns="http://www.w3.org/2000/svg" width="256" height="256">
<path d="M0 0 C2.21191207 1.65412555 4.26459752 3.38545798 6.30859375 5.2421875 C7.04207031 5.88414063 7.77554688 6.52609375 8.53125 7.1875 C22.8634173 20.51174473 31.39447021 39.48602168 32.5234375 58.9453125 C33.09207255 76.10718008 28.42408068 91.26775522 20.70703125 106.48046875 C16.10746852 115.61662953 11.60324035 124.79794196 7.12109375 133.9921875 C6.70618683 134.84278748 6.29127991 135.69338745 5.86380005 136.56976318 C0.19145577 148.20756109 -5.35911178 159.8893188 -10.76391602 171.65405273 C-16.41687332 183.91089048 -22.35942339 196.02505336 -28.28282166 208.15278625 C-28.65484207 208.91447617 -29.02686249 209.67616608 -29.41015625 210.4609375 C-29.77762466 211.21316086 -30.14509308 211.96538422 -30.5236969 212.74040222 C-35.30903201 222.54421739 -40.00994795 232.38839649 -44.69140625 242.2421875 C-45.35140625 242.2421875 -46.01140625 242.2421875 -46.69140625 242.2421875 C-62.8316188 209.24597147 -62.8316188 209.24597147 -70.12890625 193.3671875 C-75.16394852 182.41511019 -80.39545422 171.5698528 -85.69140625 160.7421875 C-91.63478508 148.59001875 -97.47667576 136.40494398 -103.11865234 124.109375 C-105.69680077 118.49932401 -108.32107076 112.92094485 -111.05078125 107.3828125 C-111.59879395 106.26616211 -112.14680664 105.14951172 -112.71142578 103.99902344 C-113.73892358 101.91401878 -114.77552823 99.83346211 -115.82373047 97.75878906 C-125.51626661 78.05074438 -125.92407953 56.51406708 -118.92211914 35.83984375 C-114.86057324 24.7376159 -107.98712066 15.55263675 -99.69140625 7.2421875 C-99.07910156 6.61828125 -98.46679688 5.994375 -97.8359375 5.3515625 C-71.04794272 -20.00850079 -29.67659454 -19.38239121 0 0 Z M-75.69140625 40.2421875 C-84.00867105 50.9666755 -86.15809277 61.94839056 -84.69140625 75.2421875 C-82.12845256 86.14096143 -75.12805785 94.65450117 -65.81640625 100.6796875 C-55.96431137 106.07160919 -46.0853606 107.65911018 -35.19140625 105.1171875 C-25.39005979 102.17815056 -16.71173455 95.46655365 -11.15234375 86.859375 C-5.61670126 76.53265013 -4.34819181 65.94009761 -7.41015625 54.57421875 C-11.78471013 42.41220474 -20.4557598 34.57451851 -31.83203125 29.00390625 C-47.28008845 22.67539542 -64.5233816 28.8427012 -75.69140625 40.2421875 Z " fill="#FFFFFF" transform="translate(173.69140625,13.7578125)"/>
</svg>
