<?xml version="1.0" encoding="UTF-8"?>
<!DOCTYPE svg PUBLIC "-//W3C//DTD SVG 1.1//EN" "http://www.w3.org/Graphics/SVG/1.1/DTD/svg11.dtd">
<svg xmlns="http://www.w3.org/2000/svg" version="1.1" width="512px" height="512px" style="shape-rendering:geometricPrecision; text-rendering:geometricPrecision; image-rendering:optimizeQuality; fill-rule:evenodd; clip-rule:evenodd" xmlns:xlink="http://www.w3.org/1999/xlink">
<g><path style="opacity:0.943" fill="#000000" d="M 247.5,-0.5 C 250.833,-0.5 254.167,-0.5 257.5,-0.5C 321.454,34.4802 385.787,68.9802 450.5,103C 452.049,104.214 453.215,105.714 454,107.5C 454.667,160.167 454.667,212.833 454,265.5C 443.287,362.158 396.454,435.325 313.5,485C 294.65,494.429 275.65,503.262 256.5,511.5C 253.5,511.5 250.5,511.5 247.5,511.5C 220.441,500.637 194.775,487.137 170.5,471C 102.272,419.649 64.105,351.149 56,265.5C 55.3333,212.833 55.3333,160.167 56,107.5C 56.7845,105.714 57.9512,104.214 59.5,103C 122.389,68.7258 185.056,34.2258 247.5,-0.5 Z M 251.5,20.5 C 312.271,52.3867 372.938,84.5533 433.5,117C 434.664,165.429 434.83,213.929 434,262.5C 423.784,356.835 377.284,426.669 294.5,472C 280.394,478.72 266.061,484.887 251.5,490.5C 159.257,455.42 102.09,389.754 80,293.5C 78.0926,283.241 76.7593,272.908 76,262.5C 75.1697,213.929 75.3364,165.429 76.5,117C 135.217,85.3129 193.55,53.1463 251.5,20.5 Z"/></g>
<g><path style="opacity:0.933" fill="#000000" d="M 341.5,198.5 C 351.986,200.142 355.153,205.808 351,215.5C 310.79,248.712 270.29,281.546 229.5,314C 225.142,315.075 221.142,314.408 217.5,312C 200,291.167 182.5,270.333 165,249.5C 164.067,237.876 169.233,233.709 180.5,237C 195.646,254.981 210.98,272.814 226.5,290.5C 260.312,263.189 293.979,235.689 327.5,208C 332.092,204.549 336.758,201.382 341.5,198.5 Z"/></g>
</svg>
