<?xml version="1.0" encoding="UTF-8"?>
<!DOCTYPE svg PUBLIC "-//W3C//DTD SVG 1.1//EN" "http://www.w3.org/Graphics/SVG/1.1/DTD/svg11.dtd">
<svg xmlns="http://www.w3.org/2000/svg" version="1.1" width="512px" height="512px" style="shape-rendering:geometricPrecision; text-rendering:geometricPrecision; image-rendering:optimizeQuality; fill-rule:evenodd; clip-rule:evenodd" xmlns:xlink="http://www.w3.org/1999/xlink">
<g><path style="opacity:0.972" fill="#000000" d="M 236.5,40.5 C 322.456,41.0724 385.956,78.739 427,153.5C 449.395,201.215 453.728,250.548 440,301.5C 432.149,327.372 419.983,350.872 403.5,372C 424.695,392.862 445.529,414.028 466,435.5C 472.22,447.53 470.053,457.696 459.5,466C 450.076,471.091 441.076,470.424 432.5,464C 412.333,443.833 392.167,423.667 372,403.5C 308.201,450.706 239.034,460.206 164.5,432C 85.8842,394.485 44.5509,331.985 40.5,244.5C 44.0896,160.162 83.0896,98.6623 157.5,60C 182.756,48.6024 209.089,42.1024 236.5,40.5 Z M 230.5,85.5 C 299.609,82.959 351.443,111.292 386,170.5C 414.484,230.838 409.484,288.171 371,342.5C 325.652,395.837 268.819,414.337 200.5,398C 133.467,375.291 95.3003,328.791 86,258.5C 83.2901,192.746 109.457,142.246 164.5,107C 185.221,95.4809 207.221,88.3142 230.5,85.5 Z"/></g>
</svg>
