<?xml version="1.0" encoding="UTF-8"?>
<!DOCTYPE svg PUBLIC "-//W3C//DTD SVG 1.1//EN" "http://www.w3.org/Graphics/SVG/1.1/DTD/svg11.dtd">
<svg xmlns="http://www.w3.org/2000/svg" version="1.1" width="512px" height="512px" style="shape-rendering:geometricPrecision; text-rendering:geometricPrecision; image-rendering:optimizeQuality; fill-rule:evenodd; clip-rule:evenodd" xmlns:xlink="http://www.w3.org/1999/xlink">
<g><path style="opacity:0.953" fill="#000039" d="M 246.5,23.5 C 258.979,22.2871 270.979,24.1204 282.5,29C 351.833,57.6667 421.167,86.3333 490.5,115C 504.856,125.586 508.356,139.086 501,155.5C 498.833,159 496,161.833 492.5,164C 465.043,175.229 437.71,186.729 410.5,198.5C 438.136,210.316 465.803,222.149 493.5,234C 505.561,245.831 507.728,259.331 500,274.5C 496.464,279.02 491.964,282.186 486.5,284C 425.753,308.805 365.086,333.805 304.5,359C 294.448,363.462 284.114,367.129 273.5,370C 257.927,372.588 242.593,371.588 227.5,367C 193.48,352.772 159.313,338.939 125,325.5C 91.9556,338.358 59.2889,352.025 27,366.5C 23.5063,372.191 23.673,377.691 27.5,383C 98.4546,412.984 169.788,441.984 241.5,470C 255.113,472.614 268.446,471.614 281.5,467C 349.241,438.922 416.908,410.756 484.5,382.5C 488.85,376.113 488.183,370.279 482.5,365C 458.5,355 434.5,345 410.5,335C 404.188,327.377 405.688,321.877 415,318.5C 441.338,328.919 467.505,339.752 493.5,351C 505.561,362.831 507.728,376.331 500,391.5C 498.167,393.333 496.333,395.167 494.5,397C 425.615,425.943 356.615,454.609 287.5,483C 266.505,490.333 245.505,490.333 224.5,483C 156.5,455 88.5,427 20.5,399C 11.1552,393.309 6.48851,384.976 6.5,374C 7.31981,364.694 11.3198,357.028 18.5,351C 46.197,339.149 73.8636,327.316 101.5,315.5C 73.3933,303.947 45.3933,292.114 17.5,280C 10.2882,273.881 6.62149,266.048 6.5,256.5C 7.55703,245.88 12.557,237.714 21.5,232C 43.2767,223.028 65.11,214.195 87,205.5C 96.3125,208.877 97.8125,214.377 91.5,222C 70.4192,230.471 49.4192,239.138 28.5,248C 23.6989,253.673 23.3655,259.506 27.5,265.5C 92.6886,292.925 158.022,320.092 223.5,347C 241.34,355.232 259.674,356.565 278.5,351C 346.5,323 414.5,295 482.5,267C 489.373,259.983 489.04,253.316 481.5,247C 449.931,233.867 418.264,221.034 386.5,208.5C 350.187,222.988 313.854,237.488 277.5,252C 264.897,254.821 252.23,255.155 239.5,253C 228.482,250.327 217.815,246.661 207.5,242C 144.167,215.667 80.8333,189.333 17.5,163C 5.95789,151.161 4.12455,137.994 12,123.5C 13.8333,120.333 16.3333,117.833 19.5,116C 94.8474,84.0593 170.514,53.2259 246.5,23.5 Z M 254.5,39.5 C 261,40.2081 267.333,41.7081 273.5,44C 344.218,73.1127 414.718,102.613 485,132.5C 490.173,141.96 487.673,148.46 477.5,152C 409.947,179.943 342.28,207.61 274.5,235C 259.975,238.697 245.642,238.03 231.5,233C 163.386,205.109 95.3856,176.943 27.5,148.5C 23.3188,142.437 23.6522,136.604 28.5,131C 95.1667,103.333 161.833,75.6667 228.5,48C 236.991,44.2245 245.657,41.3912 254.5,39.5 Z"/></g>
</svg>
