<?xml version="1.0" encoding="UTF-8"?>
<!DOCTYPE svg PUBLIC "-//W3C//DTD SVG 1.1//EN" "http://www.w3.org/Graphics/SVG/1.1/DTD/svg11.dtd">
<svg xmlns="http://www.w3.org/2000/svg" version="1.1" width="512px" height="512px" style="shape-rendering:geometricPrecision; text-rendering:geometricPrecision; image-rendering:optimizeQuality; fill-rule:evenodd; clip-rule:evenodd" xmlns:xlink="http://www.w3.org/1999/xlink">
<g><path style="opacity:0.962" fill="#000000" d="M 143.5,34.5 C 150.342,34.0385 157.009,34.8718 163.5,37C 240.167,69 316.833,101 393.5,133C 406.764,134.278 420.098,134.945 433.5,135C 451.455,138.954 462.955,149.788 468,167.5C 469.429,188.46 469.929,209.46 469.5,230.5C 480.164,231.578 486.997,237.245 490,247.5C 490.667,286.167 490.667,324.833 490,363.5C 486.645,373.354 479.812,379.021 469.5,380.5C 469.667,399.503 469.5,418.503 469,437.5C 465.576,459.185 453.076,472.018 431.5,476C 306.833,476.667 182.167,476.667 57.5,476C 37.3333,471.833 25.1667,459.667 21,439.5C 20.0101,348.457 20.3434,257.457 22,166.5C 27.4489,149.385 38.9489,138.885 56.5,135C 67.0766,134.821 77.5766,134.321 88,133.5C 99,106.167 110,78.8333 121,51.5C 126.372,42.9544 133.872,37.2877 143.5,34.5 Z M 148.5,56.5 C 211.696,81.7616 274.696,107.595 337.5,134C 321.167,134.667 304.833,134.667 288.5,134C 245.588,119.529 202.588,105.363 159.5,91.5C 155.472,91.5626 152.305,93.2293 150,96.5C 144.873,108.715 140.039,121.048 135.5,133.5C 127.833,134.833 120.167,134.833 112.5,133.5C 122.163,108.332 132.496,83.4987 143.5,59C 145.315,58.2432 146.981,57.4098 148.5,56.5 Z M 165.5,117.5 C 182.962,122.487 200.295,127.987 217.5,134C 198.158,134.833 178.825,134.666 159.5,133.5C 162.069,128.365 164.069,123.031 165.5,117.5 Z M 60.5,156.5 C 183.167,156.333 305.834,156.5 428.5,157C 437.479,158.647 443.313,163.814 446,172.5C 447.422,191.793 447.922,211.126 447.5,230.5C 411.832,230.333 376.165,230.5 340.5,231C 300.355,239.646 279.022,264.48 276.5,305.5C 279.241,347.407 301.241,372.241 342.5,380C 377.498,380.5 412.498,380.667 447.5,380.5C 447.908,399.87 447.408,419.203 446,438.5C 442.674,447.077 436.507,452.243 427.5,454C 305.5,454.667 183.5,454.667 61.5,454C 51.3333,451.833 45.1667,445.667 43,435.5C 42.3333,348.833 42.3333,262.167 43,175.5C 45.2415,165.762 51.0748,159.429 60.5,156.5 Z M 345.5,252.5 C 386.501,252.724 427.501,253.057 468.5,253.5C 468.5,288.5 468.5,323.5 468.5,358.5C 427.832,358.667 387.165,358.5 346.5,358C 316.88,352.712 300.88,335.045 298.5,305C 301.424,275.917 317.091,258.417 345.5,252.5 Z M 348.5,295.5 C 359.082,295.332 362.915,300.332 360,310.5C 353.079,317.567 347.079,316.9 342,308.5C 341.011,302.477 343.178,298.144 348.5,295.5 Z"/></g>
<g><path style="opacity:0.947" fill="#000000" d="M 91.5,198.5 C 108.503,198.333 125.503,198.5 142.5,199C 149.696,203.328 151.196,209.162 147,216.5C 145.681,218.487 143.848,219.654 141.5,220C 124.833,220.667 108.167,220.667 91.5,220C 84.0603,215.377 82.5603,209.211 87,201.5C 88.6516,200.601 90.1516,199.601 91.5,198.5 Z"/></g>
<g><path style="opacity:0.923" fill="#000000" d="M 94.5,240.5 C 123.502,240.333 152.502,240.5 181.5,241C 190.115,242.717 193.281,247.884 191,256.5C 189.413,259.756 186.913,261.923 183.5,263C 153.167,263.667 122.833,263.667 92.5,263C 84.5571,259.442 82.3904,253.609 86,245.5C 88.3978,242.892 91.2312,241.225 94.5,240.5 Z"/></g>
<g><path style="opacity:0.949" fill="#000000" d="M 349.5,272.5 C 374.38,274.916 385.547,288.582 383,313.5C 376.395,332.066 363.228,339.899 343.5,337C 324.562,330.645 316.728,317.478 320,297.5C 324.632,282.946 334.466,274.612 349.5,272.5 Z M 348.5,295.5 C 343.178,298.144 341.011,302.477 342,308.5C 347.079,316.9 353.079,317.567 360,310.5C 362.915,300.332 359.082,295.332 348.5,295.5 Z"/></g>
</svg>
